<?xml version="1.0" encoding="utf-8"?>
<!-- Generator: Adobe Illustrator 22.1.0, SVG Export Plug-In . SVG Version: 6.00 Build 0)  -->
<svg version="1.1" id="Layer_1" xmlns="http://www.w3.org/2000/svg" xmlns:xlink="http://www.w3.org/1999/xlink" x="0px" y="0px"
	 viewBox="0 0 512 512" style="enable-background:new 0 0 512 512;" xml:space="preserve">
<g>
	<path d="M255.9,481c-6,0-12.1-1.6-17.3-4.6l-55.1-32.6c-8.2-4.6-4.2-6.3-1.5-7.1c11-3.8,13.2-4.6,24.9-11.3
		c1.3-0.7,2.9-0.4,4.1,0.4l42.3,25.1c1.5,0.9,3.7,0.9,5.1,0l164.9-95.2c1.5-0.9,2.5-2.7,2.5-4.5V160.7c0-1.9-1-3.6-2.6-4.6L258.4,61
		c-1.5-0.9-3.6-0.9-5.1,0L88.6,156.2c-1.6,0.9-2.6,2.7-2.6,4.6v190.3c0,1.8,1,3.6,2.6,4.4l45.2,26.1c24.6,12.2,39.6-2.1,39.6-16.7
		V177c0-2.7,2.1-4.7,4.8-4.7H199c2.6,0,4.8,2.1,4.8,4.7v188c0,32.7-17.9,51.4-48.8,51.4c-9.6,0-17.1,0-38-10.4l-43.2-24.9
		c-10.7-6.2-17.3-17.7-17.3-30.1V160.7c0-12.3,6.6-23.9,17.3-30.1l164.7-95.2c10.4-5.9,24.3-5.9,34.6,0l164.9,95.3
		c10.7,6.2,17.3,17.7,17.3,30.1v190.3c0,12.3-6.6,23.8-17.3,30.1l-164.9,95.2C268,479.4,262,481,255.9,481z M389,293.4
		c0-35.6-24.1-45.1-74.7-51.8c-51.3-6.8-56.4-10.3-56.4-22.2c0-9.9,4.4-23.1,42.3-23.1c33.8,0,46.3,7.3,51.5,30.2
		c0.4,2.1,2.4,3.8,4.6,3.8h21.4c1.3,0,2.6-0.5,3.5-1.5c0.9-1,1.3-2.3,1.3-3.7c-3.3-39.4-29.5-57.7-82.3-57.7
		c-47.1,0-75.1,19.8-75.1,53.1c0,36.1,27.9,46.1,73,50.5c54,5.3,58.2,13.2,58.2,23.8c0,18.4-14.8,26.3-49.6,26.3
		c-43.7,0-53.2-11-56.4-32.7c-0.4-2.3-2.3-4-4.7-4h-21.3c-2.7,0-4.7,2.1-4.7,4.7c0,27.8,15.1,60.9,87.3,60.9
		C359,349.9,389,329.3,389,293.4L389,293.4z"/>
</g>
</svg>
